<svg width="124" height="71" viewBox="0 0 124 71" fill="none" xmlns="http://www.w3.org/2000/svg">
<path d="M14.112 69V7.56L20.832 14.28H0.672V1.8H29.664V69H14.112ZM70.1378 70.152C64.6338 70.152 59.7058 68.808 55.3538 66.12C51.0018 63.368 47.5778 59.4 45.0818 54.216C42.5858 49.032 41.3378 42.76 41.3378 35.4C41.3378 28.04 42.5858 21.768 45.0818 16.584C47.5778 11.4 51.0018 7.464 55.3538 4.776C59.7058 2.024 64.6338 0.647999 70.1378 0.647999C75.7058 0.647999 80.6338 2.024 84.9218 4.776C89.2738 7.464 92.6978 11.4 95.1938 16.584C97.6898 21.768 98.9378 28.04 98.9378 35.4C98.9378 42.76 97.6898 49.032 95.1938 54.216C92.6978 59.4 89.2738 63.368 84.9218 66.12C80.6338 68.808 75.7058 70.152 70.1378 70.152ZM70.1378 57C72.7618 57 75.0338 56.264 76.9538 54.792C78.9378 53.32 80.4738 50.984 81.5618 47.784C82.7138 44.584 83.2898 40.456 83.2898 35.4C83.2898 30.344 82.7138 26.216 81.5618 23.016C80.4738 19.816 78.9378 17.48 76.9538 16.008C75.0338 14.536 72.7618 13.8 70.1378 13.8C67.5778 13.8 65.3058 14.536 63.3218 16.008C61.4018 17.48 59.8658 19.816 58.7138 23.016C57.6258 26.216 57.0818 30.344 57.0818 35.4C57.0818 40.456 57.6258 44.584 58.7138 47.784C59.8658 50.984 61.4018 53.32 63.3218 54.792C65.3058 56.264 67.5778 57 70.1378 57Z" fill="black"/>
<path d="M114.107 69.768C111.547 69.768 109.339 68.904 107.483 67.176C105.691 65.384 104.795 63.112 104.795 60.36C104.795 57.608 105.691 55.4 107.483 53.736C109.339 52.008 111.547 51.144 114.107 51.144C116.731 51.144 118.939 52.008 120.731 53.736C122.523 55.4 123.419 57.608 123.419 60.36C123.419 63.112 122.523 65.384 120.731 67.176C118.939 68.904 116.731 69.768 114.107 69.768Z" fill="#10B981"/>
</svg>
