<svg xmlns="http://www.w3.org/2000/svg" width="960" height="600" viewBox="0 0 960 600"><rect width="100%" height="100%" fill="#DDDDDD"/><path fill="#999999" d="M211.23 281.65q0 7.68 3.97 11.71 3.97 4.04 11.27 4.04 3.81 0 6.8-1.21 2.98-1.21 5.02-3.3 2.03-2.1 3.07-4.96 1.05-2.85 1.05-6.16 0-3.74-1.14-6.69-1.14-2.96-3.24-4.99-2.09-2.03-4.98-3.11-2.89-1.08-6.32-1.08-3.56 0-6.42 1.17-2.85 1.18-4.88 3.28-2.04 2.09-3.12 4.98-1.08 2.89-1.08 6.32Zm-7.68 64.26 28.51-35.62q1.08-1.34 2.03-2.61.96-1.27 1.85-2.54-3.18 2.04-6.99 3.08-3.81 1.05-8 1.05-4.76 0-9.33-1.65-4.58-1.65-8.13-4.99-3.56-3.33-5.75-8.25t-2.19-11.53q0-6.16 2.29-11.55 2.28-5.4 6.41-9.46 4.13-4.07 9.91-6.42 5.77-2.35 12.76-2.35 7.05 0 12.67 2.23 5.62 2.22 9.59 6.22 3.96 4 6.09 9.59 2.13 5.58 2.13 12.25 0 4.26-.73 8.07-.73 3.81-2.07 7.33-1.33 3.53-3.23 6.89-1.91 3.37-4.26 6.67l-21.02 29.97q-1.08 1.52-3.24 2.57-2.15 1.05-4.88 1.05h-14.42Zm120.78-91.82-27.24 33.34-3.18 3.93q2.67-1.33 5.75-2.06t6.63-.73q5.21 0 10.13 1.71 4.92 1.72 8.67 5.18t6.03 8.6q2.29 5.15 2.29 12.01 0 6.41-2.35 12.03-2.35 5.62-6.61 9.81-4.25 4.19-10.25 6.6-6 2.42-13.24 2.42-7.37 0-13.21-2.35-5.84-2.35-9.97-6.58-4.13-4.22-6.32-10.16-2.19-5.93-2.19-13.17 0-6.48 2.64-13.31 2.63-6.82 8.16-14.19l21.91-29.4q1.14-1.52 3.33-2.6 2.19-1.08 5.05-1.08h13.97Zm-23.69 80.01q3.75 0 6.89-1.27 3.15-1.27 5.4-3.56 2.25-2.28 3.52-5.36 1.27-3.08 1.27-6.7 0-3.94-1.2-7.08-1.21-3.15-3.43-5.34t-5.34-3.33q-3.11-1.14-6.85-1.14-3.75 0-6.8 1.27t-5.21 3.52q-2.15 2.26-3.36 5.34t-1.21 6.63q0 3.81 1.05 6.95 1.05 3.15 3.11 5.37 2.07 2.22 5.11 3.46 3.05 1.24 7.05 1.24ZM408.08 300q0 12-2.57 20.86t-7.11 14.64q-4.54 5.77-10.73 8.6t-13.37 2.83q-7.17 0-13.3-2.83-6.13-2.83-10.64-8.6-4.51-5.78-7.05-14.64T340.77 300q0-12.07 2.54-20.89 2.54-8.83 7.05-14.61 4.51-5.78 10.64-8.6 6.13-2.83 13.3-2.83 7.18 0 13.37 2.83 6.19 2.82 10.73 8.6 4.54 5.78 7.11 14.61 2.57 8.82 2.57 20.89Zm-16.19 0q0-9.97-1.46-16.51-1.46-6.54-3.9-10.41-2.45-3.88-5.62-5.43-3.18-1.56-6.61-1.56-3.36 0-6.51 1.56-3.14 1.55-5.55 5.43-2.42 3.87-3.84 10.41-1.43 6.54-1.43 16.51 0 9.97 1.43 16.51 1.42 6.54 3.84 10.41 2.41 3.88 5.55 5.43 3.15 1.56 6.51 1.56 3.43 0 6.61-1.56 3.17-1.55 5.62-5.43 2.44-3.87 3.9-10.41t1.46-16.51Zm117.03 24.89-8.32 8.19-21.52-21.52-21.72 21.65-8.32-8.19 21.72-21.78-20.7-20.7 8.25-8.26 20.7 20.7 20.58-20.57 8.38 8.25-20.64 20.64 21.59 21.59Zm98.11-70.8-27.24 33.34-3.18 3.93q2.67-1.33 5.75-2.06t6.64-.73q5.2 0 10.12 1.71 4.93 1.72 8.67 5.18 3.75 3.46 6.03 8.6 2.29 5.15 2.29 12.01 0 6.41-2.35 12.03-2.35 5.62-6.6 9.81-4.26 4.19-10.26 6.6-6 2.42-13.24 2.42-7.36 0-13.21-2.35-5.84-2.35-9.97-6.58-4.12-4.22-6.31-10.16-2.19-5.93-2.19-13.17 0-6.48 2.63-13.31 2.64-6.82 8.16-14.19l21.91-29.4q1.14-1.52 3.33-2.6 2.19-1.08 5.05-1.08h13.97Zm-23.69 80.01q3.75 0 6.89-1.27 3.15-1.27 5.4-3.56 2.26-2.28 3.53-5.36 1.27-3.08 1.27-6.7 0-3.94-1.21-7.08-1.21-3.15-3.43-5.34t-5.33-3.33q-3.12-1.14-6.86-1.14-3.75 0-6.8 1.27-3.04 1.27-5.2 3.52-2.16 2.26-3.37 5.34t-1.21 6.63q0 3.81 1.05 6.95 1.05 3.15 3.11 5.37 2.07 2.22 5.12 3.46 3.04 1.24 7.04 1.24ZM690.79 300q0 12-2.58 20.86-2.57 8.86-7.11 14.64-4.54 5.77-10.73 8.6T657 346.93q-7.17 0-13.3-2.83-6.13-2.83-10.64-8.6-4.5-5.78-7.04-14.64T623.48 300q0-12.07 2.54-20.89 2.54-8.83 7.04-14.61 4.51-5.78 10.64-8.6 6.13-2.83 13.3-2.83 7.18 0 13.37 2.83 6.19 2.82 10.73 8.6 4.54 5.78 7.11 14.61 2.58 8.82 2.58 20.89Zm-16.2 0q0-9.97-1.46-16.51-1.46-6.54-3.9-10.41-2.45-3.88-5.62-5.43-3.18-1.56-6.61-1.56-3.36 0-6.5 1.56-3.15 1.55-5.56 5.43-2.41 3.87-3.84 10.41-1.43 6.54-1.43 16.51 0 9.97 1.43 16.51 1.43 6.54 3.84 10.41 2.41 3.88 5.56 5.43 3.14 1.56 6.5 1.56 3.43 0 6.61-1.56 3.17-1.55 5.62-5.43 2.44-3.87 3.9-10.41t1.46-16.51Zm89.86 0q0 12-2.58 20.86-2.57 8.86-7.11 14.64-4.54 5.77-10.73 8.6t-13.37 2.83q-7.17 0-13.3-2.83-6.13-2.83-10.64-8.6-4.5-5.78-7.04-14.64T697.14 300q0-12.07 2.54-20.89 2.54-8.83 7.04-14.61 4.51-5.78 10.64-8.6 6.13-2.83 13.3-2.83 7.18 0 13.37 2.83 6.19 2.82 10.73 8.6 4.54 5.78 7.11 14.61 2.58 8.82 2.58 20.89Zm-16.2 0q0-9.97-1.46-16.51-1.46-6.54-3.9-10.41-2.45-3.88-5.62-5.43-3.18-1.56-6.61-1.56-3.36 0-6.5 1.56-3.15 1.55-5.56 5.43-2.41 3.87-3.84 10.41-1.43 6.54-1.43 16.51 0 9.97 1.43 16.51 1.43 6.54 3.84 10.41 2.41 3.88 5.56 5.43 3.14 1.56 6.5 1.56 3.43 0 6.61-1.56 3.17-1.55 5.62-5.43 2.44-3.87 3.9-10.41t1.46-16.51Z"/></svg>